<mxfile host="65bd71144e">
    <diagram id="Z7Soj7ppFR5h9NHWYzkQ" name="Page-1">
        <mxGraphModel dx="959" dy="1116" grid="1" gridSize="10" guides="1" tooltips="1" connect="1" arrows="1" fold="1" page="1" pageScale="1" pageWidth="850" pageHeight="1100" math="0" shadow="0">
            <root>
                <mxCell id="0"/>
                <mxCell id="1" parent="0"/>
                <mxCell id="2" value="" style="group" vertex="1" connectable="0" parent="1">
                    <mxGeometry x="240" y="330" width="200" height="110" as="geometry"/>
                </mxCell>
                <mxCell id="3" value="&lt;font face=&quot;Courier New&quot;&gt;Timestamp Service&lt;/font&gt;" style="rounded=1;whiteSpace=wrap;html=1;" vertex="1" parent="2">
                    <mxGeometry x="40" y="30" width="160" height="80" as="geometry"/>
                </mxCell>
                <mxCell id="4" value="" style="shape=image;verticalLabelPosition=bottom;labelBackgroundColor=#ffffff;verticalAlign=top;aspect=fixed;imageAspect=0;image=https://knative.dev/docs/images/logo/rgb/knative-logo-rgb.png;" vertex="1" parent="2">
                    <mxGeometry width="63.14" height="51" as="geometry"/>
                </mxCell>
                <mxCell id="5" value="" style="group" vertex="1" connectable="0" parent="1">
                    <mxGeometry y="330" width="200" height="110" as="geometry"/>
                </mxCell>
                <mxCell id="6" value="&lt;font face=&quot;Courier New&quot;&gt;PingSource&lt;/font&gt;" style="rounded=1;whiteSpace=wrap;html=1;" vertex="1" parent="5">
                    <mxGeometry x="40" y="30" width="160" height="80" as="geometry"/>
                </mxCell>
                <mxCell id="7" value="" style="shape=image;verticalLabelPosition=bottom;labelBackgroundColor=#ffffff;verticalAlign=top;aspect=fixed;imageAspect=0;image=https://knative.dev/docs/images/logo/rgb/knative-logo-rgb.png;" vertex="1" parent="5">
                    <mxGeometry width="63.14" height="51" as="geometry"/>
                </mxCell>
                <mxCell id="11" value="" style="group" vertex="1" connectable="0" parent="1">
                    <mxGeometry x="480" y="330" width="200" height="110" as="geometry"/>
                </mxCell>
                <mxCell id="12" value="&lt;font face=&quot;Courier New&quot;&gt;Event Record&lt;br&gt;Service&lt;br&gt;&lt;/font&gt;" style="rounded=1;whiteSpace=wrap;html=1;" vertex="1" parent="11">
                    <mxGeometry x="40" y="30" width="160" height="80" as="geometry"/>
                </mxCell>
                <mxCell id="13" value="" style="shape=image;verticalLabelPosition=bottom;labelBackgroundColor=#ffffff;verticalAlign=top;aspect=fixed;imageAspect=0;image=https://knative.dev/docs/images/logo/rgb/knative-logo-rgb.png;" vertex="1" parent="11">
                    <mxGeometry width="63.14" height="51" as="geometry"/>
                </mxCell>
                <mxCell id="14" value="" style="endArrow=none;html=1;entryX=0.5;entryY=1;entryDx=0;entryDy=0;startArrow=none;" edge="1" parent="1" source="22" target="3">
                    <mxGeometry width="50" height="50" relative="1" as="geometry">
                        <mxPoint x="360" y="960" as="sourcePoint"/>
                        <mxPoint x="450" y="560" as="targetPoint"/>
                    </mxGeometry>
                </mxCell>
                <mxCell id="18" value="" style="endArrow=none;html=1;entryX=0.5;entryY=1;entryDx=0;entryDy=0;" edge="1" parent="1" target="6">
                    <mxGeometry width="50" height="50" relative="1" as="geometry">
                        <mxPoint x="120" y="960" as="sourcePoint"/>
                        <mxPoint x="120" y="450" as="targetPoint"/>
                    </mxGeometry>
                </mxCell>
                <mxCell id="19" value="" style="endArrow=none;html=1;entryX=0.5;entryY=1;entryDx=0;entryDy=0;startArrow=none;" edge="1" parent="1" target="12">
                    <mxGeometry width="50" height="50" relative="1" as="geometry">
                        <mxPoint x="600" y="960" as="sourcePoint"/>
                        <mxPoint x="600" y="450" as="targetPoint"/>
                    </mxGeometry>
                </mxCell>
                <mxCell id="25" style="edgeStyle=none;html=1;entryX=-0.025;entryY=0.116;entryDx=0;entryDy=0;entryPerimeter=0;" edge="1" parent="1" source="21" target="22">
                    <mxGeometry relative="1" as="geometry"/>
                </mxCell>
                <mxCell id="51" value="trigger" style="edgeLabel;html=1;align=center;verticalAlign=middle;resizable=0;points=[];fontSize=18;fontFamily=Courier New;" vertex="1" connectable="0" parent="25">
                    <mxGeometry x="-0.2132" y="3" relative="1" as="geometry">
                        <mxPoint x="12" y="3" as="offset"/>
                    </mxGeometry>
                </mxCell>
                <mxCell id="21" value="" style="rounded=0;whiteSpace=wrap;html=1;" vertex="1" parent="1">
                    <mxGeometry x="100" y="480" width="40" height="100" as="geometry"/>
                </mxCell>
                <mxCell id="26" style="edgeStyle=none;html=1;entryX=-0.072;entryY=0.315;entryDx=0;entryDy=0;exitX=1.075;exitY=0.117;exitDx=0;exitDy=0;exitPerimeter=0;entryPerimeter=0;" edge="1" parent="1" source="22" target="24">
                    <mxGeometry relative="1" as="geometry"/>
                </mxCell>
                <mxCell id="49" value="timestamp" style="edgeLabel;html=1;align=center;verticalAlign=middle;resizable=0;points=[];fontSize=18;fontFamily=Courier New;" vertex="1" connectable="0" parent="26">
                    <mxGeometry x="-0.1139" y="-3" relative="1" as="geometry">
                        <mxPoint as="offset"/>
                    </mxGeometry>
                </mxCell>
                <mxCell id="22" value="" style="rounded=0;whiteSpace=wrap;html=1;" vertex="1" parent="1">
                    <mxGeometry x="340" y="480" width="40" height="430" as="geometry"/>
                </mxCell>
                <mxCell id="23" value="" style="endArrow=none;html=1;entryX=0.5;entryY=1;entryDx=0;entryDy=0;" edge="1" parent="1" target="22">
                    <mxGeometry width="50" height="50" relative="1" as="geometry">
                        <mxPoint x="360" y="960" as="sourcePoint"/>
                        <mxPoint x="360" y="440" as="targetPoint"/>
                    </mxGeometry>
                </mxCell>
                <mxCell id="52" style="edgeStyle=none;html=1;entryX=1.054;entryY=0.272;entryDx=0;entryDy=0;entryPerimeter=0;fontFamily=Courier New;fontSize=18;exitX=-0.105;exitY=0.707;exitDx=0;exitDy=0;exitPerimeter=0;" edge="1" parent="1" source="24" target="22">
                    <mxGeometry relative="1" as="geometry">
                        <Array as="points">
                            <mxPoint x="490" y="597"/>
                        </Array>
                    </mxGeometry>
                </mxCell>
                <mxCell id="53" value="success?" style="edgeLabel;html=1;align=center;verticalAlign=middle;resizable=0;points=[];fontSize=18;fontFamily=Courier New;" vertex="1" connectable="0" parent="52">
                    <mxGeometry x="0.1426" y="1" relative="1" as="geometry">
                        <mxPoint x="15" as="offset"/>
                    </mxGeometry>
                </mxCell>
                <mxCell id="24" value="" style="rounded=0;whiteSpace=wrap;html=1;" vertex="1" parent="1">
                    <mxGeometry x="580" y="480" width="40" height="170" as="geometry"/>
                </mxCell>
            </root>
        </mxGraphModel>
    </diagram>
</mxfile>